<svg width="27" height="28" viewBox="0 0 27 28" fill="none" xmlns="http://www.w3.org/2000/svg">
<path d="M10.0402 2.34319L9.94748 18.8182C9.94496 19.2644 9.77994 19.6454 9.4524 19.961C9.12486 20.2767 8.73393 20.4332 8.27959 20.4307C7.82525 20.4281 7.44039 20.2672 7.125 19.9479C6.80961 19.6286 6.65317 19.2459 6.65568 18.7997L6.74845 2.32466C6.75105 1.8613 6.91184 1.47177 7.23081 1.15607C7.54977 0.840365 7.93642 0.683792 8.39076 0.686351C8.84509 0.688909 9.23424 0.849849 9.55821 1.16917C9.88217 1.48849 10.0428 1.87983 10.0402 2.34319ZM5.07472 7.2579L5.00979 18.7904C5.00727 19.2366 4.84225 19.6176 4.51471 19.9332C4.18717 20.2489 3.79624 20.4054 3.3419 20.4029C2.88756 20.4003 2.5027 20.2394 2.18731 19.9201C1.87192 19.6008 1.71548 19.2181 1.71799 18.7719L1.78293 7.23937C1.78554 6.77601 1.94632 6.38648 2.26529 6.07078C2.58426 5.75507 2.97091 5.5985 3.42524 5.60106C3.87958 5.60362 4.26873 5.76456 4.59269 6.08388C4.91665 6.4032 5.07733 6.79454 5.07472 7.2579ZM23.0948 22.4191C23.2328 22.2654 23.3961 22.1891 23.5847 22.1901C23.7733 22.1912 23.9358 22.2693 24.072 22.4246L26.1714 24.1097C26.3077 24.2649 26.3753 24.4498 26.374 24.6643C26.3728 24.8788 26.3032 25.0629 26.1652 25.2166L24.0468 26.9037C23.9088 27.0574 23.7455 27.1337 23.5569 27.1326C23.3683 27.1316 23.2059 27.0534 23.0696 26.8982L23.0777 25.4566L3.32693 25.3454L3.31881 26.787C3.18079 26.9407 3.01319 27.017 2.81603 27.0159C2.61886 27.0147 2.46071 26.9366 2.34156 26.7815L0.216608 25.0705C0.0803192 24.9153 0.0127789 24.7304 0.0139868 24.5159C0.0151946 24.3014 0.0848123 24.1173 0.22284 23.9636L2.36678 22.3023C2.48767 22.1486 2.64669 22.0722 2.84385 22.0733C3.04102 22.0745 3.20775 22.1526 3.34403 22.3078L3.33621 23.6979L23.087 23.8091L23.0948 22.4191ZM11.5934 18.8275L11.6676 5.64747C11.6702 5.18411 11.831 4.79458 12.1499 4.47888C12.4689 4.16317 12.8556 4.0066 13.3099 4.00916C13.7642 4.01172 14.1534 4.17266 14.4773 4.49198C14.8013 4.8113 14.962 5.20264 14.9594 5.666L14.8852 18.846C14.8827 19.2922 14.7176 19.6732 14.3901 19.9888C14.0626 20.3045 13.6716 20.461 13.2173 20.4585C12.7629 20.4559 12.3781 20.295 12.0627 19.9757C11.7473 19.6564 11.5909 19.2737 11.5934 18.8275ZM16.5311 18.8553L16.6145 4.02777C16.6172 3.56441 16.7779 3.17487 17.0969 2.85917C17.4159 2.54347 17.8025 2.3869 18.2569 2.38946C18.7112 2.39201 19.1003 2.55296 19.4243 2.87228C19.7483 3.1916 19.9089 3.58294 19.9063 4.0463L19.8229 18.8738C19.8203 19.32 19.6553 19.701 19.3278 20.0166C19.0002 20.3323 18.6093 20.4888 18.155 20.4863C17.7006 20.4837 17.3158 20.3228 17.0004 20.0035C16.685 19.6842 16.5285 19.3015 16.5311 18.8553ZM21.443 18.883L21.4894 10.6454C21.492 10.1821 21.6571 9.79257 21.9846 9.47692C22.3122 9.16126 22.7031 9.00471 23.1574 9.00727C23.6118 9.00983 23.9966 9.17075 24.312 9.49002C24.6274 9.80929 24.7838 10.2006 24.7812 10.664L24.7348 18.9015C24.7323 19.3477 24.5716 19.7286 24.2526 20.0443C23.9336 20.36 23.547 20.5166 23.0927 20.5141C22.6383 20.5115 22.2492 20.3506 21.9252 20.0312C21.6012 19.7119 21.4405 19.3292 21.443 18.883Z" fill="white"/>
</svg>
