<svg width="25" height="31" viewBox="0 0 25 31" fill="none" xmlns="http://www.w3.org/2000/svg">
<path d="M4.55591 18.0832H19.0598V21.1199H4.55591V18.0832Z" stroke="white" stroke-width="2" stroke-linecap="round" stroke-linejoin="round"/>
<path d="M6.61899 22.7572L7.79721 30H15.8177L16.9959 22.7572" stroke="white" stroke-width="2" stroke-linecap="round" stroke-linejoin="round"/>
<path d="M13.3804 16.4837C13.3271 16.2109 13.2103 15.9545 13.0396 15.7352C12.8688 15.5159 12.6489 15.3398 12.3975 15.2211C12.5836 15.0658 12.7174 14.8569 12.7806 14.6229C12.8438 14.3888 12.8334 14.141 12.7508 13.9131C12.6682 13.6852 12.5174 13.4882 12.3189 13.349C12.1204 13.2099 11.8838 13.1352 11.6414 13.1352C11.399 13.1352 11.1624 13.2099 10.9639 13.349C10.7655 13.4882 10.6146 13.6852 10.532 13.9131C10.4494 14.141 10.439 14.3888 10.5022 14.6229C10.5654 14.8569 10.6992 15.0658 10.8853 15.2211C10.6331 15.3403 10.4126 15.5172 10.2417 15.7377C10.0708 15.9581 9.95436 16.2157 9.90179 16.4896" stroke="white" stroke-width="2" stroke-linecap="round" stroke-linejoin="round"/>
<path d="M15.5919 13.2322C17.0393 13.4315 18.4734 13.7173 19.8865 14.0883C19.6789 13.3648 19.266 12.717 18.6977 12.2234C18.1293 11.7299 17.4301 11.4118 16.6846 11.3077C14.0302 10.8864 11.6548 13.1443 11.6548 13.1443" stroke="white" stroke-width="2" stroke-linecap="round" stroke-linejoin="round"/>
<path d="M11.6813 13.0187C11.6813 13.0187 11.5474 6.47618 6.61085 4.16456C5.70528 3.81006 4.73237 3.66075 3.76216 3.72737C2.79196 3.79399 1.84859 4.07488 0.999969 4.54983C3.36261 5.93841 5.65046 7.45051 7.85398 9.07984" stroke="white" stroke-width="2" stroke-linecap="round" stroke-linejoin="round"/>
<path d="M11.6442 13.142C11.6442 13.142 8.12781 9.61143 4.0698 11.2392C4.0698 11.2392 1.93283 12.1974 1.90451 14.4506C3.9816 13.8991 6.09234 13.4833 8.22339 13.2057" stroke="white" stroke-width="2" stroke-linecap="round" stroke-linejoin="round"/>
<path d="M11.6542 12.4145C13.6991 8.6261 23.1887 7.75113 23.1887 7.75113C23.1887 7.75113 21.2965 4.73034 17.3141 6.10504" stroke="white" stroke-width="2" stroke-linecap="round" stroke-linejoin="round"/>
<path d="M11.777 12.0894C11.597 7.28683 20.103 1.60987 20.103 1.60987C19.0353 1.04039 17.802 0.862426 16.6169 1.10682C15.4318 1.35122 14.3695 2.00257 13.6142 2.94799C12.8969 3.77733 12.3663 4.7512 12.0584 5.80358" stroke="white" stroke-width="2" stroke-linecap="round" stroke-linejoin="round"/>
</svg>
