<svg width="32" height="32" viewBox="0 0 32 32" fill="none" xmlns="http://www.w3.org/2000/svg">
<path d="M26 13H30V15H26V13Z" fill="white"/>
<path d="M23 7.586L25.828 4.758L27.242 6.172L24.414 9.001L23 7.586Z" fill="white"/>
<path d="M23 20.414L24.413 19L27.241 21.828L25.827 23.242L23 20.414Z" fill="white"/>
<path d="M17 2H19V6H17V2Z" fill="white"/>
<path d="M18 8C17.6647 8.00218 17.3303 8.03228 17 8.09V10.142C17.3259 10.0521 17.662 10.0044 18 10C19.0609 10 20.0783 10.4214 20.8284 11.1716C21.5786 11.9217 22 12.9391 22 14C22 15.0609 21.5786 16.0783 20.8284 16.8284C20.0783 17.5786 19.0609 18 18 18V20C19.5913 20 21.1174 19.3679 22.2426 18.2426C23.3679 17.1174 24 15.5913 24 14C24 12.4087 23.3679 10.8826 22.2426 9.75736C21.1174 8.63214 19.5913 8 18 8Z" fill="white"/>
<path d="M10 20.184V7H8.00001V20.184C7.33279 20.4199 6.77045 20.8841 6.41237 21.4945C6.0543 22.1049 5.92354 22.8222 6.04321 23.5197C6.16288 24.2172 6.52528 24.85 7.06635 25.3061C7.60741 25.7622 8.29232 26.0124 9.00001 26.0124C9.70769 26.0124 10.3926 25.7622 10.9337 25.3061C11.4747 24.85 11.8371 24.2172 11.9568 23.5197C12.0765 22.8222 11.9457 22.1049 11.5876 21.4945C11.2296 20.8841 10.6672 20.4199 10 20.184Z" fill="white"/>
<path d="M9.00002 30C7.62199 30.0016 6.27422 29.5959 5.12595 28.8341C3.97769 28.0722 3.08011 26.9881 2.54593 25.7178C2.01175 24.4475 1.86478 23.0477 2.12348 21.6942C2.38219 20.3407 3.03502 19.0937 4.00002 18.11V7C4.00002 5.67392 4.5268 4.40215 5.46448 3.46447C6.40216 2.52678 7.67393 2 9.00002 2C10.3261 2 11.5979 2.52678 12.5355 3.46447C13.4732 4.40215 14 5.67392 14 7V18.11C14.965 19.0937 15.6178 20.3407 15.8765 21.6942C16.1352 23.0477 15.9883 24.4475 15.4541 25.7178C14.9199 26.9881 14.0223 28.0722 12.8741 28.8341C11.7258 29.5959 10.378 30.0016 9.00002 30ZM9.00002 4C8.20461 4.00079 7.44201 4.31712 6.87957 4.87956C6.31713 5.44199 6.00081 6.20459 6.00002 7V18.983L5.66802 19.282C4.91289 19.9569 4.38053 20.8452 4.1414 21.8294C3.90226 22.8135 3.96762 23.8471 4.32883 24.7932C4.69005 25.7394 5.33008 26.5536 6.16421 27.128C6.99834 27.7024 7.98724 28.01 9.00002 28.01C10.0128 28.01 11.0017 27.7024 11.8358 27.128C12.67 26.5536 13.31 25.7394 13.6712 24.7932C14.0324 23.8471 14.0978 22.8135 13.8586 21.8294C13.6195 20.8452 13.0871 19.9569 12.332 19.282L12 18.983V7C11.9992 6.20459 11.6829 5.44199 11.1205 4.87956C10.558 4.31712 9.79542 4.00079 9.00002 4Z" fill="white"/>
</svg>
